<?xml version="1.0" encoding="UTF-8"?>
<svg version="1.1" xmlns="http://www.w3.org/2000/svg" width="500" height="500">
<path d="M0 0 C2.59081729 1.72238691 5.31123211 3.00787547 8.09765625 4.39453125 C11.18302675 6.10517086 14.23455727 7.87277675 17.28515625 9.64453125 C18.13013672 10.13397217 18.97511719 10.62341309 19.84570312 11.12768555 C25.20044424 14.24529144 30.44778145 17.49049673 35.6484375 20.859375 C39.00910181 22.9658201 42.47633824 24.83690766 45.97265625 26.70703125 C49.93690117 28.8477235 53.86099625 31.05643473 57.78515625 33.26953125 C58.50533936 33.6754248 59.22552246 34.08131836 59.9675293 34.49951172 C61.67791051 35.46391744 63.38783352 36.42913573 65.09765625 37.39453125 C65.09765625 38.05453125 65.09765625 38.71453125 65.09765625 39.39453125 C65.90203125 39.53568359 65.90203125 39.53568359 66.72265625 39.6796875 C69.8330028 40.61586089 72.31607576 42.15960598 75.09765625 43.83203125 C78.38689541 45.8014632 81.63787073 47.73948962 85.09765625 49.39453125 C85.09765625 50.05453125 85.09765625 50.71453125 85.09765625 51.39453125 C85.84015625 51.66265625 86.58265625 51.93078125 87.34765625 52.20703125 C89.98827574 53.34729876 91.95318469 54.48833431 94.09765625 56.39453125 C94.09765625 57.05453125 94.09765625 57.71453125 94.09765625 58.39453125 C94.75765625 58.39453125 95.41765625 58.39453125 96.09765625 58.39453125 C97.82122156 60.50544835 99.40963516 62.60631417 100.97265625 64.83203125 C101.42447266 65.47148682 101.87628906 66.11094238 102.34179688 66.76977539 C111.0191097 79.2978826 113.24149724 92.09696661 113.25878906 107.10229492 C113.26375397 108.14572052 113.26871887 109.18914612 113.27383423 110.26419067 C113.28837181 113.6969673 113.29524391 117.12969772 113.30078125 120.5625 C113.30360863 121.74148676 113.306436 122.92047352 113.30934906 124.13518715 C113.324308 130.37471361 113.33355818 136.61421715 113.33789062 142.85375977 C113.34336938 149.27120462 113.36739458 155.68843669 113.39586258 162.10581493 C113.41456425 167.06548154 113.41969857 172.02509765 113.4212265 176.98479652 C113.42423671 179.34927852 113.43220947 181.71375997 113.44541168 184.07820702 C113.59831579 213.56772611 113.59831579 213.56772611 106.34765625 226.14453125 C106.00057617 226.7694043 105.65349609 227.39427734 105.29589844 228.03808594 C101.56835578 234.59435523 97.49883251 241.17912249 91.09765625 245.39453125 C90.43765625 245.39453125 89.77765625 245.39453125 89.09765625 245.39453125 C89.09765625 246.05453125 89.09765625 246.71453125 89.09765625 247.39453125 C86.85908317 249.07421631 84.62833937 250.62300564 82.28515625 252.14453125 C81.59953613 252.59554199 80.91391602 253.04655273 80.20751953 253.51123047 C75.54557531 256.54405333 70.79537574 259.29888287 65.87109375 261.88671875 C59.42914717 265.38896013 53.19597811 269.32898334 47.09765625 273.39453125 C46.10765625 273.39453125 45.11765625 273.39453125 44.09765625 273.39453125 C44.09765625 274.05453125 44.09765625 274.71453125 44.09765625 275.39453125 C43.34935547 275.79671875 43.34935547 275.79671875 42.5859375 276.20703125 C37.83335278 278.80090155 33.19871552 281.53981998 28.59765625 284.39453125 C24.97025366 286.64486434 21.34726521 288.85430284 17.59765625 290.89453125 C13.91524481 292.9006713 10.35045279 295.06183873 6.78515625 297.26953125 C4.55616298 298.64481232 2.32699752 300.01981436 0.09765625 301.39453125 C-0.92972656 302.03132813 -1.95710937 302.668125 -3.015625 303.32421875 C-9.44208964 307.20843733 -15.7117571 310.21324048 -22.90234375 312.39453125 C-23.60359375 312.62011719 -24.30484375 312.84570312 -25.02734375 313.078125 C-46.70679995 319.03176354 -65.63515567 309.63861599 -84.01953125 299.19140625 C-85.64890259 298.26220653 -87.27591098 297.32886497 -88.90234375 296.39453125 C-88.90234375 295.73453125 -88.90234375 295.07453125 -88.90234375 294.39453125 C-89.48556396 294.27158691 -90.06878418 294.14864258 -90.66967773 294.02197266 C-92.934252 293.38556414 -94.6083474 292.5537961 -96.625 291.35546875 C-97.32351074 290.94288818 -98.02202148 290.53030762 -98.74169922 290.10522461 C-99.47533691 289.6644458 -100.20897461 289.22366699 -100.96484375 288.76953125 C-101.71910645 288.3216626 -102.47336914 287.87379395 -103.25048828 287.41235352 C-108.50789263 284.27552158 -113.68602087 281.03684893 -118.80078125 277.671875 C-120.96387367 276.25040399 -120.96387367 276.25040399 -123.90234375 275.39453125 C-123.90234375 274.73453125 -123.90234375 274.07453125 -123.90234375 273.39453125 C-124.45148438 273.29140625 -125.000625 273.18828125 -125.56640625 273.08203125 C-133.85578853 270.64234683 -141.65313467 264.30835346 -148.88232422 259.6027832 C-152.83560046 257.04169978 -156.85325796 254.69275065 -160.9921875 252.44921875 C-163.77251045 250.91407111 -166.35189641 249.29101774 -168.90234375 247.39453125 C-168.90234375 246.73453125 -168.90234375 246.07453125 -168.90234375 245.39453125 C-169.49273437 245.12640625 -170.083125 244.85828125 -170.69140625 244.58203125 C-180.98869448 239.05133227 -187.05521056 226.07232042 -190.5546875 215.40625 C-192.88896529 206.90402651 -193.05212619 198.04747693 -193.04760742 189.28588867 C-193.05264534 187.8519854 -193.05264534 187.8519854 -193.05778503 186.38911438 C-193.0672084 183.25939601 -193.06923372 180.12973163 -193.0703125 177 C-193.07353084 174.80341063 -193.07689533 172.60682148 -193.08039856 170.41023254 C-193.08636814 165.8166962 -193.08824067 161.22317862 -193.08764648 156.62963867 C-193.08754494 150.77279585 -193.10119959 144.91607445 -193.11841869 139.05926037 C-193.1295912 134.52508502 -193.13156409 129.99093856 -193.13103676 125.45675087 C-193.13220887 123.29881687 -193.13658695 121.14088194 -193.14436913 118.98296165 C-193.19126128 104.63906428 -193.176488 90.96064561 -187.90234375 77.39453125 C-187.51046875 76.38390625 -187.11859375 75.37328125 -186.71484375 74.33203125 C-186.31265625 73.37296875 -186.31265625 73.37296875 -185.90234375 72.39453125 C-185.24234375 72.39453125 -184.58234375 72.39453125 -183.90234375 72.39453125 C-183.82757813 71.85183594 -183.7528125 71.30914062 -183.67578125 70.75 C-182.60126472 67.47760876 -180.71282392 65.35577664 -178.52734375 62.70703125 C-177.73585938 61.73378906 -176.944375 60.76054687 -176.12890625 59.7578125 C-173.90234375 57.39453125 -173.90234375 57.39453125 -170.90234375 56.39453125 C-170.90234375 55.73453125 -170.90234375 55.07453125 -170.90234375 54.39453125 C-166.72097417 51.10281477 -162.37170591 48.48182751 -157.70703125 45.9453125 C-146.34718226 39.66417037 -135.29326182 32.84247933 -124.29785156 25.94921875 C-109.15617259 16.49226931 -109.15617259 16.49226931 -103.90234375 15.39453125 C-103.90234375 14.73453125 -103.90234375 14.07453125 -103.90234375 13.39453125 C-103.0825 12.99621094 -102.26265625 12.59789063 -101.41796875 12.1875 C-100.3403125 11.65769531 -99.26265625 11.12789062 -98.15234375 10.58203125 C-97.085 10.05996094 -96.01765625 9.53789063 -94.91796875 9 C-91.94389184 7.52436025 -91.94389184 7.52436025 -89.69921875 5.6953125 C-87.90234375 4.39453125 -87.90234375 4.39453125 -84.90234375 4.39453125 C-84.90234375 3.73453125 -84.90234375 3.07453125 -84.90234375 2.39453125 C-82.28387362 0.96627482 -79.66490267 -0.46091757 -77.04296875 -1.8828125 C-75.04237154 -2.980155 -73.05148724 -4.09553389 -71.07421875 -5.234375 C-47.92260534 -18.43079464 -21.44302951 -15.47479068 0 0 Z M-67.94238281 26.18457031 C-71.10102858 28.13452652 -74.28196253 30.04697062 -77.46484375 31.95703125 C-78.07779297 32.32538086 -78.69074219 32.69373047 -79.32226562 33.07324219 C-95.89948633 43.00385333 -95.89948633 43.00385333 -102.90234375 46.39453125 C-102.90234375 47.05453125 -102.90234375 47.71453125 -102.90234375 48.39453125 C-103.75570312 48.64460938 -104.6090625 48.8946875 -105.48828125 49.15234375 C-109.12902387 50.47700754 -112.25819552 52.23287299 -115.52734375 54.26953125 C-116.84343376 55.07603712 -118.1598588 55.88199644 -119.4765625 56.6875 C-120.18216309 57.1211084 -120.88776367 57.5547168 -121.61474609 58.00146484 C-124.08048264 59.50301156 -126.56152723 60.97646688 -129.046875 62.4453125 C-129.92456543 62.96561035 -130.80225586 63.4859082 -131.70654297 64.02197266 C-133.41867565 65.03629936 -135.13245805 66.04784837 -136.84814453 67.05615234 C-141.50761628 69.83007181 -145.90709599 72.77005117 -150.19555664 76.09106445 C-151.71891528 77.25444763 -153.30747849 78.33128774 -154.90234375 79.39453125 C-154.90234375 80.05453125 -154.90234375 80.71453125 -154.90234375 81.39453125 C-155.56234375 81.39453125 -156.22234375 81.39453125 -156.90234375 81.39453125 C-158.44042548 83.32683589 -158.44042548 83.32683589 -159.90234375 85.83203125 C-160.41796875 86.65574219 -160.93359375 87.47945313 -161.46484375 88.328125 C-164.71402514 95.25912335 -165.19768508 102.3885332 -165.16113281 109.9465332 C-165.16463745 110.85516113 -165.16814209 111.76378906 -165.17175293 112.69995117 C-165.18049215 115.67765138 -165.17474731 118.65511023 -165.16796875 121.6328125 C-165.16931799 123.72112574 -165.17126068 125.80943868 -165.17376709 127.89775085 C-165.17670809 132.26609296 -165.17245499 136.63435302 -165.16308594 141.00268555 C-165.15171338 146.57381664 -165.15824354 152.14475453 -165.17023087 157.71587849 C-165.17749532 162.02698696 -165.17514021 166.33805047 -165.16997528 170.64916039 C-165.16865033 172.70185558 -165.17024555 174.75455499 -165.17493439 176.80724525 C-165.20692709 194.75311318 -165.09343709 208.74361521 -152.8046875 222.70703125 C-150.95212441 224.72633162 -150.95212441 224.72633162 -147.90234375 224.39453125 C-147.90234375 225.05453125 -147.90234375 225.71453125 -147.90234375 226.39453125 C-146.87496094 226.96300781 -145.84757812 227.53148437 -144.7890625 228.1171875 C-137.54523841 232.14591804 -130.40589931 236.24689997 -123.4453125 240.75390625 C-120.76467512 242.48334972 -118.06257015 244.16965336 -115.33984375 245.83203125 C-114.53417969 246.32574219 -113.72851562 246.81945312 -112.8984375 247.328125 C-110.98552066 248.55160299 -110.98552066 248.55160299 -108.90234375 248.39453125 C-108.90234375 249.05453125 -108.90234375 249.71453125 -108.90234375 250.39453125 C-107.80921875 251.05453125 -106.71609375 251.71453125 -105.58984375 252.39453125 C-104.66751953 252.95140625 -104.66751953 252.95140625 -103.7265625 253.51953125 C-101.78872449 254.61077124 -101.78872449 254.61077124 -98.90234375 254.39453125 C-98.90234375 255.05453125 -98.90234375 255.71453125 -98.90234375 256.39453125 C-98.11730469 256.76964844 -97.33226562 257.14476562 -96.5234375 257.53125 C-86.88746565 262.2250915 -86.88746565 262.2250915 -82.83984375 265.26953125 C-80.101488 267.68759114 -80.101488 267.68759114 -76.90234375 267.39453125 C-76.90234375 268.05453125 -76.90234375 268.71453125 -76.90234375 269.39453125 C-76.25910156 269.73484375 -75.61585938 270.07515625 -74.953125 270.42578125 C-68.46252007 273.90718989 -62.22380046 277.65348645 -56.04296875 281.66015625 C-48.25475696 285.96110903 -39.69242138 286.72824568 -31.0703125 284.7421875 C-24.8674117 282.6745539 -19.60911278 279.54432941 -14.21484375 275.8828125 C-11.90234375 274.39453125 -11.90234375 274.39453125 -8.90234375 273.39453125 C-8.90234375 272.73453125 -8.90234375 272.07453125 -8.90234375 271.39453125 C-8.07734375 271.16636719 -7.25234375 270.93820312 -6.40234375 270.703125 C-2.16673652 269.11949953 1.32304999 266.91549191 5.09765625 264.45703125 C9.66832495 261.505857 14.16803935 258.72839675 19.09765625 256.39453125 C19.09765625 255.73453125 19.09765625 255.07453125 19.09765625 254.39453125 C19.63390625 254.29140625 20.17015625 254.18828125 20.72265625 254.08203125 C23.72267669 253.21360428 26.33560975 251.83832829 29.09765625 250.39453125 C29.09765625 249.73453125 29.09765625 249.07453125 29.09765625 248.39453125 C29.9342981 248.23368042 29.9342981 248.23368042 30.7878418 248.06958008 C33.51725161 247.2719035 35.61632158 246.05741201 38.0546875 244.59375 C39.00279297 244.02849609 39.95089844 243.46324219 40.92773438 242.88085938 C41.91193359 242.28724609 42.89613281 241.69363281 43.91015625 241.08203125 C45.85392262 239.91886291 47.79792777 238.75609349 49.7421875 237.59375 C50.6595166 237.04380371 51.5768457 236.49385742 52.52197266 235.92724609 C55.69127717 234.0412846 58.88659607 232.20831001 62.09765625 230.39453125 C62.09765625 229.73453125 62.09765625 229.07453125 62.09765625 228.39453125 C62.67644531 228.28496094 63.25523437 228.17539062 63.8515625 228.0625 C70.22407475 226.16737027 75.29272543 220.62631113 79.09765625 215.39453125 C79.09765625 214.73453125 79.09765625 214.07453125 79.09765625 213.39453125 C79.75765625 213.39453125 80.41765625 213.39453125 81.09765625 213.39453125 C81.58352025 211.87582427 82.06096826 210.35442426 82.53515625 208.83203125 C82.80199219 207.98511719 83.06882812 207.13820313 83.34375 206.265625 C85.03323592 199.83157241 85.24640573 193.5325323 85.24291992 186.93017578 C85.24627853 186.00726746 85.24963715 185.08435913 85.25309753 184.13348389 C85.26255664 181.09808996 85.26454803 178.06275148 85.265625 175.02734375 C85.26884082 172.90656512 85.27220514 170.78578671 85.27571106 168.66500854 C85.28168953 164.22507208 85.28355225 159.78515505 85.28295898 155.34521484 C85.28285738 149.6706135 85.29651404 143.99613732 85.31373119 138.32156563 C85.32487709 133.94281447 85.3268774 129.56409333 85.32634926 125.18532944 C85.32752529 123.09386641 85.33192583 121.0024025 85.33968163 118.91095352 C85.34953489 115.97977294 85.34658257 113.04886116 85.34057617 110.11767578 C85.34619568 109.26335968 85.35181519 108.40904358 85.35760498 107.52883911 C85.32037545 100.33929325 84.4628676 93.23075206 80.97265625 86.83203125 C80.04453125 85.13046875 80.04453125 85.13046875 79.09765625 83.39453125 C78.43765625 83.39453125 77.77765625 83.39453125 77.09765625 83.39453125 C76.69546875 82.49734375 76.69546875 82.49734375 76.28515625 81.58203125 C75.09848219 79.39605271 74.00166512 77.98120531 72.09765625 76.39453125 C71.43765625 76.39453125 70.77765625 76.39453125 70.09765625 76.39453125 C70.09765625 75.73453125 70.09765625 75.07453125 70.09765625 74.39453125 C67.96702659 72.90676174 67.96702659 72.90676174 65.16015625 71.39453125 C64.06960938 70.77578125 62.9790625 70.15703125 61.85546875 69.51953125 C61.25379883 69.18050781 60.65212891 68.84148437 60.03222656 68.4921875 C56.51249645 66.4951271 53.02442267 64.44420828 49.53515625 62.39453125 C48.81062256 61.97059082 48.08608887 61.54665039 47.33959961 61.10986328 C42.18688063 58.08008549 37.16176307 54.90818816 32.19921875 51.57421875 C30.0633233 50.14978549 30.0633233 50.14978549 27.09765625 50.39453125 C27.09765625 49.73453125 27.09765625 49.07453125 27.09765625 48.39453125 C26.00453125 47.73453125 24.91140625 47.07453125 23.78515625 46.39453125 C23.17027344 46.02328125 22.55539062 45.65203125 21.921875 45.26953125 C19.98403699 44.17829126 19.98403699 44.17829126 17.09765625 44.39453125 C17.09765625 43.73453125 17.09765625 43.07453125 17.09765625 42.39453125 C16.46601563 42.05421875 15.834375 41.71390625 15.18359375 41.36328125 C5.27943139 35.99733738 -4.56207605 30.57828629 -14.02807617 24.46923828 C-35.0143064 10.98536792 -47.36572409 13.4427524 -67.94238281 26.18457031 Z " fill="#0A0A0A" transform="translate(289.90234375,101.60546875)"/>
<path d="M0 0 C2.5279963 1.6681836 5.07260631 3.11127559 7.75 4.5234375 C12.85436162 7.24771659 17.76645846 10.23553821 22.6875 13.2734375 C29.25111106 17.32419736 35.8474402 21.20274549 42.6875 24.7734375 C42.6875 25.4334375 42.6875 26.0934375 42.6875 26.7734375 C43.21730469 26.86496094 43.74710938 26.95648438 44.29296875 27.05078125 C52.85386296 29.63441164 61.94872951 36.178768 66.6875 43.7734375 C67.18219032 44.54773605 67.18219032 44.54773605 67.68687439 45.337677 C71.99046145 53.28580408 71.26637718 62.02918383 71.21875 70.80078125 C71.22144942 72.55758376 71.22533558 74.31438481 71.23034668 76.07118225 C71.23622212 79.74185499 71.22774328 83.41213664 71.20898438 87.08276367 C71.18621274 91.76426613 71.19931877 96.44485021 71.22327423 101.12631893 C71.23779979 104.75113209 71.23309515 108.37573125 71.22276306 112.00055122 C71.22011352 113.7255521 71.22330243 115.45057304 71.23268127 117.17555046 C71.32177151 138.16522568 71.32177151 138.16522568 63.5625 146.3984375 C60.6875 148.7734375 60.6875 148.7734375 58.6875 148.7734375 C58.6875 149.4334375 58.6875 150.0934375 58.6875 150.7734375 C58.0275 150.7734375 57.3675 150.7734375 56.6875 150.7734375 C56.6875 151.4334375 56.6875 152.0934375 56.6875 152.7734375 C55.88699219 153.21042969 55.88699219 153.21042969 55.0703125 153.65625 C46.72329424 158.24855417 38.61579519 163.15237308 30.625 168.3359375 C26.22316584 171.18858814 21.79438413 173.90301592 17.17578125 176.390625 C12.42464978 179.03097122 7.79429813 181.88003818 3.140625 184.6875 C2.54958984 185.04231445 1.95855469 185.39712891 1.34960938 185.76269531 C-0.1400297 186.66855691 -1.61049768 187.60576935 -3.078125 188.546875 C-5.3125 189.7734375 -5.3125 189.7734375 -8.3125 189.7734375 C-8.3125 190.4334375 -8.3125 191.0934375 -8.3125 191.7734375 C-22.2605752 196.47173652 -22.2605752 196.47173652 -28.3125 195.7734375 C-29.611875 195.6290625 -30.91125 195.4846875 -32.25 195.3359375 C-43.11416366 192.71227893 -53.13693593 184.99284893 -62.37158203 178.94140625 C-66.65269082 176.14857992 -71.0401953 173.68592861 -75.55078125 171.2890625 C-79.7368268 168.99177018 -83.76711327 166.45590838 -87.8203125 163.93359375 C-92.30472393 161.14664951 -96.84086208 158.44628225 -101.37597656 155.74291992 C-104.0629187 154.13803809 -106.70764816 152.51000539 -109.3125 150.7734375 C-109.3125 150.1134375 -109.3125 149.4534375 -109.3125 148.7734375 C-110.17875 148.433125 -110.17875 148.433125 -111.0625 148.0859375 C-116.60385004 144.85348331 -119.61054751 138.7688747 -121.3125 132.7734375 C-121.90453689 126.7515218 -121.87652009 120.7570733 -121.84375 114.7109375 C-121.8464492 112.95173936 -121.85033516 111.19254268 -121.85534668 109.43334961 C-121.86122165 105.75848085 -121.85274379 102.08400278 -121.83398438 98.40917969 C-121.81119586 93.7186116 -121.82432976 89.02895925 -121.84827423 84.33842468 C-121.86278665 80.70936285 -121.8581014 77.08051511 -121.84776306 73.45144653 C-121.84511079 71.72282806 -121.84831228 69.9941896 -121.85768127 68.26559448 C-121.92784836 51.68415375 -121.92784836 51.68415375 -117.3125 43.7734375 C-116.6525 43.7734375 -115.9925 43.7734375 -115.3125 43.7734375 C-115.09464844 43.03738281 -114.87679687 42.30132812 -114.65234375 41.54296875 C-112.96751494 38.06033426 -111.02120506 36.67957613 -107.875 34.4609375 C-106.90691406 33.76355469 -105.93882812 33.06617188 -104.94140625 32.34765625 C-102.3125 30.7734375 -102.3125 30.7734375 -99.3125 30.7734375 C-99.3125 30.1134375 -99.3125 29.4534375 -99.3125 28.7734375 C-92.6875 24.7734375 -92.6875 24.7734375 -89.3125 24.7734375 C-89.3125 24.1134375 -89.3125 23.4534375 -89.3125 22.7734375 C-88.4875 22.31195313 -87.6625 21.85046875 -86.8125 21.375 C-80.10738875 17.59729254 -73.50842149 13.69420498 -67 9.5859375 C-51.66073916 -0.07882091 -51.66073916 -0.07882091 -46.3125 -1.2265625 C-46.3125 -1.8865625 -46.3125 -2.5465625 -46.3125 -3.2265625 C-29.34113852 -11.65007708 -15.55675346 -10.4742914 0 0 Z M-62.3125 61.7734375 C-63.05940269 64.63428389 -63.05940269 64.63428389 -62.94360352 67.85546875 C-62.95613663 69.08354248 -62.96866974 70.31161621 -62.98158264 71.5769043 C-62.96931424 72.91325949 -62.95589421 74.24960453 -62.94140625 75.5859375 C-62.94223522 76.96069527 -62.94469568 78.33545294 -62.94871521 79.71020508 C-62.95157134 82.58868311 -62.93689229 85.46638222 -62.90942383 88.34472656 C-62.87533947 92.03051701 -62.88135994 95.71491498 -62.9000864 99.40077209 C-62.91066585 102.23876508 -62.90171038 105.07643521 -62.88670158 107.91439819 C-62.88152612 109.27313274 -62.8819939 110.63190109 -62.88824654 111.9906311 C-62.89370897 113.89093394 -62.87045024 115.79125354 -62.84594727 117.69140625 C-62.83974869 118.77188232 -62.83355011 119.8523584 -62.8271637 120.96557617 C-62.18767379 124.45445444 -61.07620511 125.6150166 -58.3125 127.7734375 C-55.14533033 128.82916072 -52.87067997 128.91281264 -49.54345703 128.93457031 C-48.35857697 128.94417786 -47.1736969 128.9537854 -45.95291138 128.96368408 C-44.03102493 128.9700589 -44.03102493 128.9700589 -42.0703125 128.9765625 C-40.75465302 128.98226257 -39.43899353 128.98796265 -38.08346558 128.99383545 C-35.29766453 129.00433469 -32.51189226 129.01018442 -29.72607422 129.01367188 C-26.16281742 129.01915506 -22.59994303 129.04318332 -19.03680611 129.07164383 C-15.63131558 129.09478793 -12.2258776 129.09672087 -8.8203125 129.1015625 C-6.90449875 129.1200827 -6.90449875 129.1200827 -4.94998169 129.13897705 C-3.7587973 129.13597595 -2.56761292 129.13297485 -1.34033203 129.12988281 C0.22828079 129.13535126 0.22828079 129.13535126 1.82858276 129.14093018 C6.08757931 128.59346766 8.69371696 126.76722054 11.6875 123.7734375 C12.01561824 121.09152266 12.01561824 121.09152266 11.99389648 117.91845703 C12.00988388 116.69023224 12.02587128 115.46200745 12.04234314 114.19656372 C12.04871971 112.84979668 12.0541125 111.50302468 12.05859375 110.15625 C12.06755813 108.77863464 12.07667994 107.4010203 12.08595276 106.02340698 C12.10245521 103.13325635 12.11014499 100.24322173 12.11303711 97.35302734 C12.11841966 93.65146051 12.15608639 89.95098574 12.20178127 86.24972725 C12.23154334 83.40322911 12.23876046 80.55699406 12.23976326 77.71035385 C12.2439681 76.34597654 12.25641336 74.98159863 12.27728081 73.61737442 C12.30416627 71.70750518 12.29626856 69.79724235 12.28686523 67.88720703 C12.29193588 66.80069855 12.29700653 65.71419006 12.30223083 64.59475708 C11.89876081 61.61173258 11.89876081 61.61173258 9.54774475 59.42367554 C6.18505043 57.48354574 4.18904948 57.26693218 0.32421875 57.25585938 C-0.94059326 57.24325073 -2.20540527 57.23064209 -3.50854492 57.21765137 C-4.88070231 57.22481143 -6.25285459 57.23301549 -7.625 57.2421875 C-9.04077419 57.23949077 -10.45654658 57.23560684 -11.87231445 57.23059082 C-14.83465263 57.22470414 -17.79650725 57.23323108 -20.75878906 57.25195312 C-24.5486551 57.27474319 -28.33738802 57.26161551 -32.12721252 57.23766327 C-35.04928058 57.22318221 -37.97108169 57.22782163 -40.89315796 57.23817444 C-42.29015234 57.2408354 -43.68717126 57.23759415 -45.08413696 57.22825623 C-47.03915926 57.21805471 -48.99426697 57.23637088 -50.94921875 57.25585938 C-52.05998779 57.25904175 -53.17075684 57.26222412 -54.31518555 57.26550293 C-58.09545053 57.90611882 -59.73364398 58.94649053 -62.3125 61.7734375 Z " fill="#080808" transform="translate(275.3125,159.2265625)"/>
<path d="M0 0 C1.99028232 3.69623859 4 7.74300779 4 12 C3.01 11.67 2.02 11.34 1 11 C1 9.68 1 8.36 1 7 C-0.32 7.33 -1.64 7.66 -3 8 C-2.37240135 5.07120629 -1.41377341 2.63904371 0 0 Z " fill="#2F2F2F" transform="translate(397,178)"/>
<path d="M0 0 C0.66 0.33 1.32 0.66 2 1 C0.92643323 2.15498897 -0.15929788 3.29867867 -1.25 4.4375 C-1.85328125 5.07558594 -2.4565625 5.71367187 -3.078125 6.37109375 C-5.10048016 8.08516306 -6.41270605 8.59358878 -9 9 C-7.625 7 -7.625 7 -6 5 C-5.34 5 -4.68 5 -4 5 C-4 4.34 -4 3.68 -4 3 C-2 1.375 -2 1.375 0 0 Z " fill="#4E4E4E" transform="translate(123,153)"/>
</svg>
